<svg width="87" height="86" viewBox="0 0 87 86" fill="none" xmlns="http://www.w3.org/2000/svg">
<path d="M39.1456 5.11694L41.0843 8.61576L41.0843 8.61576L39.1456 5.11694ZM8.54395 22.0728L10.4826 25.5716L10.4826 25.5716L8.54395 22.0728ZM4.02623 30.4279L0.0382038 30.7372L4.02623 30.4279ZM7.39558 73.8773L3.40755 74.1866L7.39558 73.8773ZM79.6048 73.8774L75.6167 73.5681L75.6167 73.5681L79.6048 73.8774ZM82.9738 30.4323L86.9618 30.7416L86.9618 30.7416L82.9738 30.4323ZM78.4506 22.0741L80.3867 18.5739L80.3867 18.5739L78.4506 22.0741ZM47.7898 5.1139L45.8537 8.61408L45.8537 8.61408L47.7898 5.1139ZM37.207 1.61812L6.60532 18.5739L10.4826 25.5716L41.0843 8.61576L37.207 1.61812ZM0.0382038 30.7372L3.40755 74.1866L11.3836 73.5681L8.01426 30.1187L0.0382038 30.7372ZM16.2381 86H70.7622V78H16.2381V86ZM83.5928 74.1866L86.9618 30.7416L78.9857 30.1231L75.6167 73.5681L83.5928 74.1866ZM80.3867 18.5739L49.726 1.61371L45.8537 8.61408L76.5144 25.5743L80.3867 18.5739ZM86.9618 30.7416C87.3493 25.7442 84.7694 20.9982 80.3867 18.5739L76.5144 25.5743C78.1769 26.4939 79.1291 28.2747 78.9857 30.1231L86.9618 30.7416ZM70.7622 86C77.4586 86 83.0738 80.8798 83.5928 74.1866L75.6167 73.5681C75.4249 76.0417 73.3343 78 70.7622 78V86ZM3.40755 74.1866C3.92659 80.8798 9.54177 86 16.2381 86V78C13.6661 78 11.5754 76.0417 11.3836 73.5681L3.40755 74.1866ZM6.60532 18.5739C2.22724 20.9997 -0.34907 25.7431 0.0382038 30.7372L8.01426 30.1187C7.87102 28.2715 8.8218 26.4918 10.4826 25.5716L6.60532 18.5739ZM41.0843 8.61576C42.5649 7.79535 44.3724 7.79471 45.8537 8.61408L49.726 1.61371C45.8335 -0.539469 41.098 -0.537807 37.207 1.61812L41.0843 8.61576ZM51.0164 53.7849C51.0164 57.8545 47.6818 61.2085 43.5002 61.2085V69.2085C52.0391 69.2085 59.0164 62.3335 59.0164 53.7849H51.0164ZM43.5002 61.2085C39.3187 61.2085 35.9841 57.8545 35.9841 53.7849H27.9841C27.9841 62.3335 34.9614 69.2085 43.5002 69.2085V61.2085ZM35.9841 53.7849C35.9841 49.7153 39.3187 46.3613 43.5002 46.3613V38.3613C34.9614 38.3613 27.9841 45.2363 27.9841 53.7849H35.9841ZM43.5002 46.3613C47.6818 46.3613 51.0164 49.7153 51.0164 53.7849H59.0164C59.0164 45.2363 52.0391 38.3613 43.5002 38.3613V46.3613Z" fill="#524EB7"/>
</svg>
