<svg width="87" height="86" viewBox="0 0 87 86" fill="none" xmlns="http://www.w3.org/2000/svg">
<path d="M43.4096 4C52.4485 4.0571 70.5265 8.11363 70.5267 23.8829C70.5269 38.203 70.527 43.173 80.8225 55.8123C83.0145 58.5032 84.1865 61.8412 81.2244 64.0381C76.0742 67.8575 64.134 72.0504 43.4096 72.0504M43.5904 4C34.5515 4.0571 16.4735 8.11363 16.4733 23.8829C16.4731 38.203 16.473 43.173 6.17749 55.8123C3.98551 58.5032 2.81347 61.8412 5.77564 64.0381C10.9258 67.8575 22.866 72.0504 43.5904 72.0504M28.1732 71.6459C28.4705 75.0972 32.0958 81.9999 44.219 82C56.3421 82.0001 58.8777 75.0973 58.6301 71.6459M43.4857 19.1063L43.4096 29.7437" stroke="#F5F5F5" stroke-width="8" stroke-linecap="round" stroke-linejoin="round"/>
</svg>
