<svg width="95" height="94" viewBox="0 0 95 94" fill="none" xmlns="http://www.w3.org/2000/svg">
<g filter="url(#filter0_d_226_2)">
<path d="M67.4322 77.4603C68.9162 79.0967 71.4459 79.2203 73.0823 77.7362C74.7188 76.2522 74.8423 73.7226 73.3583 72.0861L67.4322 77.4603ZM21.641 72.0861C20.157 73.7226 20.2805 76.2522 21.917 77.7362C23.5534 79.2203 26.0831 79.0967 27.5671 77.4603L21.641 72.0861ZM47.5 78C27.8457 78 12 62.2821 12 43H4C4 66.7961 23.5238 86 47.5 86V78ZM12 43C12 23.7179 27.8457 8 47.5 8V0C23.5238 0 4 19.2039 4 43H12ZM47.5 8C67.1543 8 83 23.7179 83 43H91C91 19.2039 71.4762 0 47.5 0V8ZM83 43C83 62.2821 67.1543 78 47.5 78V86C71.4762 86 91 66.7961 91 43H83ZM73.3583 72.0861C67.0005 65.0755 57.7632 60.6667 47.5 60.6667V68.6667C55.4301 68.6667 62.5393 72.0649 67.4322 77.4603L73.3583 72.0861ZM47.5 60.6667C37.2369 60.6667 27.9988 65.0754 21.641 72.0861L27.5671 77.4603C32.4599 72.065 39.5698 68.6667 47.5 68.6667V60.6667ZM47.5 47.6667C42.3892 47.6667 38.3333 43.5893 38.3333 38.6667H30.3333C30.3333 48.1034 38.0673 55.6667 47.5 55.6667V47.6667ZM38.3333 38.6667C38.3333 33.744 42.3892 29.6667 47.5 29.6667V21.6667C38.0673 21.6667 30.3333 29.2299 30.3333 38.6667H38.3333ZM47.5 29.6667C52.6108 29.6667 56.6667 33.744 56.6667 38.6667H64.6667C64.6667 29.2299 56.9327 21.6667 47.5 21.6667V29.6667ZM56.6667 38.6667C56.6667 43.5893 52.6108 47.6667 47.5 47.6667V55.6667C56.9327 55.6667 64.6667 48.1034 64.6667 38.6667H56.6667Z" fill="#F8F8F8"/>
</g>
<defs>
<filter id="filter0_d_226_2" x="0" y="0" width="95" height="94" filterUnits="userSpaceOnUse" color-interpolation-filters="sRGB">
<feFlood flood-opacity="0" result="BackgroundImageFix"/>
<feColorMatrix in="SourceAlpha" type="matrix" values="0 0 0 0 0 0 0 0 0 0 0 0 0 0 0 0 0 0 127 0" result="hardAlpha"/>
<feOffset dy="4"/>
<feGaussianBlur stdDeviation="2"/>
<feComposite in2="hardAlpha" operator="out"/>
<feColorMatrix type="matrix" values="0 0 0 0 0 0 0 0 0 0 0 0 0 0 0 0 0 0 0.25 0"/>
<feBlend mode="normal" in2="BackgroundImageFix" result="effect1_dropShadow_226_2"/>
<feBlend mode="normal" in="SourceGraphic" in2="effect1_dropShadow_226_2" result="shape"/>
</filter>
</defs>
</svg>
