<svg width="87" height="86" viewBox="0 0 87 86" fill="none" xmlns="http://www.w3.org/2000/svg">
<path d="M63.4322 77.4603C64.9162 79.0967 67.4459 79.2203 69.0823 77.7362C70.7188 76.2522 70.8423 73.7226 69.3583 72.0861L63.4322 77.4603ZM17.641 72.0861C16.157 73.7226 16.2805 76.2522 17.917 77.7362C19.5534 79.2203 22.0831 79.0967 23.5671 77.4603L17.641 72.0861ZM43.5 78C23.8457 78 8 62.2821 8 43H0C0 66.7961 19.5238 86 43.5 86V78ZM8 43C8 23.7179 23.8457 8 43.5 8V0C19.5238 0 0 19.2039 0 43H8ZM43.5 8C63.1543 8 79 23.7179 79 43H87C87 19.2039 67.4762 0 43.5 0V8ZM79 43C79 62.2821 63.1543 78 43.5 78V86C67.4762 86 87 66.7961 87 43H79ZM69.3583 72.0861C63.0005 65.0755 53.7632 60.6667 43.5 60.6667V68.6667C51.4301 68.6667 58.5393 72.0649 63.4322 77.4603L69.3583 72.0861ZM43.5 60.6667C33.2369 60.6667 23.9988 65.0754 17.641 72.0861L23.5671 77.4603C28.4599 72.065 35.5698 68.6667 43.5 68.6667V60.6667ZM43.5 47.6667C38.3892 47.6667 34.3333 43.5893 34.3333 38.6667H26.3333C26.3333 48.1034 34.0673 55.6667 43.5 55.6667V47.6667ZM34.3333 38.6667C34.3333 33.744 38.3892 29.6667 43.5 29.6667V21.6667C34.0673 21.6667 26.3333 29.2299 26.3333 38.6667H34.3333ZM43.5 29.6667C48.6108 29.6667 52.6667 33.744 52.6667 38.6667H60.6667C60.6667 29.2299 52.9327 21.6667 43.5 21.6667V29.6667ZM52.6667 38.6667C52.6667 43.5893 48.6108 47.6667 43.5 47.6667V55.6667C52.9327 55.6667 60.6667 48.1034 60.6667 38.6667H52.6667Z" fill="black" fill-opacity="0.51"/>
</svg>
