<svg width="163" height="163" viewBox="0 0 163 163" fill="none" xmlns="http://www.w3.org/2000/svg">
<g filter="url(#filter0_b_209_9)">
<circle cx="81.5" cy="81.5" r="81.5" fill="#E7526C"/>
<path d="M67 97.6667H95V95.8333C95 93.3333 93.7167 91.3467 91.15 89.8733C88.5833 88.4022 85.2 87.6667 81 87.6667C76.8 87.6667 73.4167 88.4022 70.85 89.8733C68.2833 91.3467 67 93.3333 67 95.8333V97.6667ZM81 84.3333C82.925 84.3333 84.5735 83.68 85.9455 82.3733C87.3152 81.0689 88 79.5 88 77.6667C88 75.8333 87.3152 74.2633 85.9455 72.9567C84.5735 71.6522 82.925 71 81 71C79.075 71 77.4277 71.6522 76.058 72.9567C74.686 74.2633 74 75.8333 74 77.6667C74 79.5 74.686 81.0689 76.058 82.3733C77.4277 83.68 79.075 84.3333 81 84.3333ZM53 111C51.075 111 49.4277 110.348 48.058 109.043C46.686 107.737 46 106.167 46 104.333V64.3333C46 62.5 46.686 60.9311 48.058 59.6267C49.4277 58.32 51.075 57.6667 53 57.6667H64.025L68.4 53.1667C69.0417 52.4444 69.814 51.9022 70.717 51.54C71.6223 51.18 72.5708 51 73.5625 51H88.4375C89.4292 51 90.3777 51.18 91.283 51.54C92.186 51.9022 92.9583 52.4444 93.6 53.1667L97.975 57.6667H109C110.925 57.6667 112.574 58.32 113.946 59.6267C115.315 60.9311 116 62.5 116 64.3333V104.333C116 106.167 115.315 107.737 113.946 109.043C112.574 110.348 110.925 111 109 111H53Z" fill="#FCFCFC"/>
</g>
<defs>
<filter id="filter0_b_209_9" x="-4" y="-4" width="171" height="171" filterUnits="userSpaceOnUse" color-interpolation-filters="sRGB">
<feFlood flood-opacity="0" result="BackgroundImageFix"/>
<feGaussianBlur in="BackgroundImageFix" stdDeviation="2"/>
<feComposite in2="SourceAlpha" operator="in" result="effect1_backgroundBlur_209_9"/>
<feBlend mode="normal" in="SourceGraphic" in2="effect1_backgroundBlur_209_9" result="shape"/>
</filter>
</defs>
</svg>
