<svg width="125" height="124" viewBox="0 0 125 124" fill="none" xmlns="http://www.w3.org/2000/svg">
<path d="M55.9409 4.68973L57.1565 6.87428L57.1565 6.87428L55.9409 4.68973ZM9.84468 30.3408L11.0603 32.5254L11.0603 32.5254L9.84468 30.3408ZM3.03951 42.9807L0.546932 43.1732L0.546932 43.1732L3.03951 42.9807ZM8.11486 108.712L5.62228 108.904L8.11486 108.712ZM116.886 108.712L114.393 108.519L114.393 108.519L116.886 108.712ZM121.96 42.9874L124.453 43.1798L124.453 43.1798L121.96 42.9874ZM115.147 30.3429L116.361 28.1575L116.361 28.1575L115.147 30.3429ZM68.9619 4.68512L67.7478 6.87053L67.7478 6.87053L68.9619 4.68512ZM54.7253 2.50518L8.62905 28.1563L11.0603 32.5254L57.1565 6.87428L54.7253 2.50518ZM0.546932 43.1732L5.62228 108.904L10.6074 108.519L5.53209 42.7883L0.546932 43.1732ZM21.4347 123.5H103.566V118.5H21.4347V123.5ZM119.378 108.904L124.453 43.1798L119.468 42.7949L114.393 108.519L119.378 108.904ZM116.361 28.1575L70.176 2.49972L67.7478 6.87053L113.933 32.5283L116.361 28.1575ZM124.453 43.1798C124.928 37.0236 121.765 31.1597 116.361 28.1575L113.933 32.5283C117.635 34.5849 119.792 38.5947 119.468 42.7949L124.453 43.1798ZM103.566 123.5C111.845 123.5 118.742 117.148 119.378 108.904L114.393 108.519C113.959 114.143 109.248 118.5 103.566 118.5V123.5ZM5.62228 108.904C6.25882 117.148 13.1558 123.5 21.4347 123.5V118.5C15.7522 118.5 11.0417 114.143 10.6074 108.519L5.62228 108.904ZM8.62905 28.1563C3.23057 31.1604 0.0719023 37.021 0.546932 43.1732L5.53209 42.7883C5.20799 38.5908 7.3623 34.5832 11.0603 32.5254L8.62905 28.1563ZM57.1565 6.87428C60.447 5.04324 64.4561 5.04182 67.7478 6.87053L70.176 2.49972C65.373 -0.168516 59.5263 -0.16645 54.7253 2.50519L57.1565 6.87428ZM77.3475 78.3156C77.3475 86.4705 70.7091 93.0975 62.5004 93.0975V98.0975C73.4527 98.0975 82.3475 89.2497 82.3475 78.3156H77.3475ZM62.5004 93.0975C54.2916 93.0975 47.6532 86.4705 47.6532 78.3156H42.6532C42.6532 89.2497 51.548 98.0975 62.5004 98.0975V93.0975ZM47.6532 78.3156C47.6532 70.1607 54.2916 63.5337 62.5004 63.5337V58.5337C51.548 58.5337 42.6532 67.3815 42.6532 78.3156H47.6532ZM62.5004 63.5337C70.7091 63.5337 77.3475 70.1607 77.3475 78.3156H82.3475C82.3475 67.3815 73.4527 58.5337 62.5004 58.5337V63.5337Z" fill="#524EB7"/>
</svg>
