<svg width="125" height="124" viewBox="0 0 125 124" fill="none" xmlns="http://www.w3.org/2000/svg">
<path d="M94.7612 112.078C95.8716 113.307 97.7686 113.404 98.9983 112.294C100.228 111.183 100.325 109.286 99.2143 108.057L94.7612 112.078ZM25.7846 108.057C24.6742 109.286 24.7709 111.183 26.0006 112.294C27.2303 113.404 29.1274 113.307 30.2378 112.078L25.7846 108.057ZM62.5 118C31.272 118 6 92.9041 6 62H0C0 96.2655 28.0061 124 62.5 124V118ZM6 62C6 31.0959 31.272 6 62.5 6V0C28.0061 0 0 27.7345 0 62H6ZM62.5 6C93.728 6 119 31.0959 119 62H125C125 27.7345 96.9939 0 62.5 0V6ZM119 62C119 92.9041 93.728 118 62.5 118V124C96.9939 124 125 96.2655 125 62H119ZM99.2143 108.057C90.1929 98.0658 77.082 91.7778 62.5 91.7778V97.7778C75.3231 97.7778 86.8355 103.3 94.7612 112.078L99.2143 108.057ZM62.5 91.7778C47.918 91.7778 34.8061 98.0657 25.7846 108.057L30.2378 112.078C38.1634 103.3 49.6769 97.7778 62.5 97.7778V91.7778ZM62.5 72.1111C53.1793 72.1111 45.6667 64.6254 45.6667 55.4444H39.6667C39.6667 67.9867 49.9134 78.1111 62.5 78.1111V72.1111ZM45.6667 55.4444C45.6667 46.2635 53.1793 38.7778 62.5 38.7778V32.7778C49.9134 32.7778 39.6667 42.9022 39.6667 55.4444H45.6667ZM62.5 38.7778C71.8207 38.7778 79.3333 46.2635 79.3333 55.4444H85.3333C85.3333 42.9022 75.0866 32.7778 62.5 32.7778V38.7778ZM79.3333 55.4444C79.3333 64.6254 71.8207 72.1111 62.5 72.1111V78.1111C75.0866 78.1111 85.3333 67.9867 85.3333 55.4444H79.3333Z" fill="black" fill-opacity="0.51"/>
</svg>
