<svg width="125" height="124" viewBox="0 0 125 124" fill="none" xmlns="http://www.w3.org/2000/svg">
<path d="M62.3638 3C75.9794 3.08639 103.211 9.22318 103.211 33.0792C103.211 54.7431 103.212 62.2618 118.72 81.3827C122.022 85.4536 123.787 90.5034 119.325 93.8268C111.568 99.605 93.5816 105.948 62.3638 105.948M62.6362 3C49.0206 3.08639 21.7892 9.22318 21.7889 33.0792C21.7886 54.7431 21.7885 62.2618 6.28001 81.3827C2.97818 85.4536 1.21269 90.5034 5.6747 93.8268C13.4325 99.605 31.4184 105.948 62.6362 105.948M39.4128 105.336C39.8606 110.557 45.3216 121 63.583 121C81.8444 121 85.6638 110.557 85.2908 105.336M62.4784 25.8532L62.3638 41.9456" stroke="black" stroke-opacity="0.51" stroke-width="6" stroke-linecap="round" stroke-linejoin="round"/>
</svg>
